<mxfile host="app.diagrams.net" modified="2023-07-13T19:00:06.797Z" agent="Mozilla/5.0 (Windows NT 10.0; Win64; x64) AppleWebKit/537.36 (KHTML, like Gecko) Chrome/114.0.0.0 Safari/537.36" etag="EfsJiXKWut1kdGEgEHOE" version="21.6.2" type="device">
  <diagram name="Page-1" id="15LlECruMXfR_NY-Kl_5">
    <mxGraphModel dx="2284" dy="699" grid="1" gridSize="10" guides="1" tooltips="1" connect="1" arrows="1" fold="1" page="1" pageScale="1" pageWidth="850" pageHeight="1100" math="0" shadow="0">
      <root>
        <mxCell id="0" />
        <mxCell id="1" parent="0" />
        <mxCell id="kayHmzbgRTfpFbBfkl1g-46" value="" style="rounded=0;whiteSpace=wrap;html=1;" vertex="1" parent="1">
          <mxGeometry x="440" y="90" width="120" height="510" as="geometry" />
        </mxCell>
        <mxCell id="kayHmzbgRTfpFbBfkl1g-1" value="" style="rounded=0;whiteSpace=wrap;html=1;fillColor=#f5f5f5;strokeColor=#666666;fontColor=#333333;" vertex="1" parent="1">
          <mxGeometry x="-290" y="15" width="1320" height="680" as="geometry" />
        </mxCell>
        <mxCell id="kayHmzbgRTfpFbBfkl1g-47" value="" style="rounded=0;whiteSpace=wrap;html=1;dashed=1;strokeColor=#A9C4EB;" vertex="1" parent="1">
          <mxGeometry x="-90" y="80" width="480" height="540" as="geometry" />
        </mxCell>
        <mxCell id="kayHmzbgRTfpFbBfkl1g-45" value="" style="rounded=0;whiteSpace=wrap;html=1;dashed=1;strokeColor=#A9C4EB;" vertex="1" parent="1">
          <mxGeometry x="440" y="80" width="150" height="550" as="geometry" />
        </mxCell>
        <mxCell id="kayHmzbgRTfpFbBfkl1g-13" value="" style="edgeStyle=orthogonalEdgeStyle;rounded=0;orthogonalLoop=1;jettySize=auto;html=1;entryX=0;entryY=0.5;entryDx=0;entryDy=0;" edge="1" parent="1" source="kayHmzbgRTfpFbBfkl1g-2" target="kayHmzbgRTfpFbBfkl1g-6">
          <mxGeometry relative="1" as="geometry">
            <mxPoint x="-120" y="365" as="sourcePoint" />
            <mxPoint x="-70" y="365" as="targetPoint" />
          </mxGeometry>
        </mxCell>
        <mxCell id="kayHmzbgRTfpFbBfkl1g-2" value="Client" style="rounded=0;whiteSpace=wrap;html=1;flipH=1;flipV=0;direction=west;horizontal=1;fillColor=#f5f5f5;fontColor=#333333;strokeColor=#666666;" vertex="1" parent="1">
          <mxGeometry x="-220" y="245" width="80" height="240" as="geometry" />
        </mxCell>
        <mxCell id="kayHmzbgRTfpFbBfkl1g-14" value="" style="edgeStyle=orthogonalEdgeStyle;rounded=0;orthogonalLoop=1;jettySize=auto;html=1;exitX=1;exitY=0.25;exitDx=0;exitDy=0;" edge="1" parent="1" source="kayHmzbgRTfpFbBfkl1g-6" target="kayHmzbgRTfpFbBfkl1g-7">
          <mxGeometry relative="1" as="geometry" />
        </mxCell>
        <mxCell id="kayHmzbgRTfpFbBfkl1g-17" style="edgeStyle=orthogonalEdgeStyle;rounded=0;orthogonalLoop=1;jettySize=auto;html=1;entryX=0;entryY=0.5;entryDx=0;entryDy=0;" edge="1" parent="1" source="kayHmzbgRTfpFbBfkl1g-6">
          <mxGeometry relative="1" as="geometry">
            <mxPoint x="230" y="365" as="targetPoint" />
          </mxGeometry>
        </mxCell>
        <mxCell id="kayHmzbgRTfpFbBfkl1g-6" value="API GateWay" style="rounded=0;whiteSpace=wrap;html=1;" vertex="1" parent="1">
          <mxGeometry y="140" width="120" height="450" as="geometry" />
        </mxCell>
        <mxCell id="kayHmzbgRTfpFbBfkl1g-35" value="" style="edgeStyle=orthogonalEdgeStyle;rounded=0;orthogonalLoop=1;jettySize=auto;html=1;" edge="1" parent="1" source="kayHmzbgRTfpFbBfkl1g-7" target="kayHmzbgRTfpFbBfkl1g-33">
          <mxGeometry relative="1" as="geometry">
            <Array as="points">
              <mxPoint x="415" y="190" />
              <mxPoint x="415" y="235" />
            </Array>
          </mxGeometry>
        </mxCell>
        <mxCell id="kayHmzbgRTfpFbBfkl1g-43" value="" style="edgeStyle=orthogonalEdgeStyle;rounded=0;orthogonalLoop=1;jettySize=auto;html=1;" edge="1" parent="1" source="kayHmzbgRTfpFbBfkl1g-7" target="kayHmzbgRTfpFbBfkl1g-29">
          <mxGeometry relative="1" as="geometry">
            <mxPoint x="430" y="170" as="targetPoint" />
          </mxGeometry>
        </mxCell>
        <mxCell id="kayHmzbgRTfpFbBfkl1g-7" value="User Service" style="rounded=0;whiteSpace=wrap;html=1;fillColor=#dae8fc;strokeColor=#6c8ebf;" vertex="1" parent="1">
          <mxGeometry x="230" y="140" width="120" height="60" as="geometry" />
        </mxCell>
        <mxCell id="kayHmzbgRTfpFbBfkl1g-9" value="Movie Service" style="rounded=0;whiteSpace=wrap;html=1;fillColor=#fff2cc;strokeColor=#d6b656;" vertex="1" parent="1">
          <mxGeometry x="230" y="520" width="120" height="60" as="geometry" />
        </mxCell>
        <mxCell id="kayHmzbgRTfpFbBfkl1g-23" value="" style="edgeStyle=orthogonalEdgeStyle;rounded=0;orthogonalLoop=1;jettySize=auto;html=1;entryX=0.5;entryY=1;entryDx=0;entryDy=0;" edge="1" parent="1" source="kayHmzbgRTfpFbBfkl1g-24" target="kayHmzbgRTfpFbBfkl1g-7">
          <mxGeometry relative="1" as="geometry">
            <mxPoint x="290" y="255" as="targetPoint" />
          </mxGeometry>
        </mxCell>
        <mxCell id="kayHmzbgRTfpFbBfkl1g-27" value="" style="edgeStyle=orthogonalEdgeStyle;rounded=0;orthogonalLoop=1;jettySize=auto;html=1;" edge="1" parent="1" source="kayHmzbgRTfpFbBfkl1g-19" target="kayHmzbgRTfpFbBfkl1g-26">
          <mxGeometry relative="1" as="geometry" />
        </mxCell>
        <mxCell id="kayHmzbgRTfpFbBfkl1g-19" value="Booking Service" style="rounded=0;whiteSpace=wrap;html=1;fillColor=#d5e8d4;strokeColor=#82b366;" vertex="1" parent="1">
          <mxGeometry x="230" y="335" width="120" height="60" as="geometry" />
        </mxCell>
        <mxCell id="kayHmzbgRTfpFbBfkl1g-20" style="edgeStyle=orthogonalEdgeStyle;rounded=0;orthogonalLoop=1;jettySize=auto;html=1;entryX=0;entryY=0.5;entryDx=0;entryDy=0;exitX=1;exitY=0.75;exitDx=0;exitDy=0;" edge="1" parent="1" source="kayHmzbgRTfpFbBfkl1g-6">
          <mxGeometry relative="1" as="geometry">
            <mxPoint x="120" y="550" as="sourcePoint" />
            <mxPoint x="230" y="550" as="targetPoint" />
          </mxGeometry>
        </mxCell>
        <mxCell id="kayHmzbgRTfpFbBfkl1g-25" value="" style="edgeStyle=orthogonalEdgeStyle;rounded=0;orthogonalLoop=1;jettySize=auto;html=1;entryX=0.5;entryY=1;entryDx=0;entryDy=0;" edge="1" parent="1" source="kayHmzbgRTfpFbBfkl1g-19" target="kayHmzbgRTfpFbBfkl1g-24">
          <mxGeometry relative="1" as="geometry">
            <mxPoint x="290" y="335" as="sourcePoint" />
            <mxPoint x="290" y="200" as="targetPoint" />
          </mxGeometry>
        </mxCell>
        <mxCell id="kayHmzbgRTfpFbBfkl1g-24" value="HTTP" style="text;html=1;strokeColor=none;fillColor=none;align=center;verticalAlign=middle;whiteSpace=wrap;rounded=0;" vertex="1" parent="1">
          <mxGeometry x="260" y="245" width="60" height="30" as="geometry" />
        </mxCell>
        <mxCell id="kayHmzbgRTfpFbBfkl1g-28" value="" style="edgeStyle=orthogonalEdgeStyle;rounded=0;orthogonalLoop=1;jettySize=auto;html=1;" edge="1" parent="1" source="kayHmzbgRTfpFbBfkl1g-26" target="kayHmzbgRTfpFbBfkl1g-9">
          <mxGeometry relative="1" as="geometry" />
        </mxCell>
        <mxCell id="kayHmzbgRTfpFbBfkl1g-26" value="HTTP" style="text;html=1;strokeColor=none;fillColor=none;align=center;verticalAlign=middle;whiteSpace=wrap;rounded=0;" vertex="1" parent="1">
          <mxGeometry x="260" y="430" width="60" height="30" as="geometry" />
        </mxCell>
        <mxCell id="kayHmzbgRTfpFbBfkl1g-29" value="MongoDB" style="shape=cylinder3;whiteSpace=wrap;html=1;boundedLbl=1;backgroundOutline=1;size=15;fillColor=#d5e8d4;strokeColor=#82b366;" vertex="1" parent="1">
          <mxGeometry x="480" y="100" width="60" height="80" as="geometry" />
        </mxCell>
        <mxCell id="kayHmzbgRTfpFbBfkl1g-30" value="MongoDB" style="shape=cylinder3;whiteSpace=wrap;html=1;boundedLbl=1;backgroundOutline=1;size=15;fillColor=#d5e8d4;strokeColor=#82b366;" vertex="1" parent="1">
          <mxGeometry x="480" y="500" width="60" height="80" as="geometry" />
        </mxCell>
        <mxCell id="kayHmzbgRTfpFbBfkl1g-31" value="MongoDB" style="shape=cylinder3;whiteSpace=wrap;html=1;boundedLbl=1;backgroundOutline=1;size=15;fillColor=#d5e8d4;strokeColor=#82b366;" vertex="1" parent="1">
          <mxGeometry x="480" y="315" width="60" height="80" as="geometry" />
        </mxCell>
        <mxCell id="kayHmzbgRTfpFbBfkl1g-33" value="Redis" style="shape=cylinder3;whiteSpace=wrap;html=1;boundedLbl=1;backgroundOutline=1;size=15;fillColor=#ffe6cc;strokeColor=#d79b00;" vertex="1" parent="1">
          <mxGeometry x="480" y="195" width="60" height="80" as="geometry" />
        </mxCell>
        <mxCell id="kayHmzbgRTfpFbBfkl1g-40" style="edgeStyle=orthogonalEdgeStyle;rounded=0;orthogonalLoop=1;jettySize=auto;html=1;entryX=0;entryY=0.5;entryDx=0;entryDy=0;exitX=1;exitY=0.5;exitDx=0;exitDy=0;" edge="1" parent="1" source="kayHmzbgRTfpFbBfkl1g-9">
          <mxGeometry relative="1" as="geometry">
            <mxPoint x="360" y="550" as="sourcePoint" />
            <mxPoint x="470" y="550" as="targetPoint" />
          </mxGeometry>
        </mxCell>
        <mxCell id="kayHmzbgRTfpFbBfkl1g-41" style="edgeStyle=orthogonalEdgeStyle;rounded=0;orthogonalLoop=1;jettySize=auto;html=1;entryX=0;entryY=0;entryDx=0;entryDy=52.5;entryPerimeter=0;" edge="1" parent="1" target="kayHmzbgRTfpFbBfkl1g-31">
          <mxGeometry relative="1" as="geometry">
            <mxPoint x="350" y="364.5" as="sourcePoint" />
            <mxPoint x="460" y="364.5" as="targetPoint" />
            <Array as="points">
              <mxPoint x="350" y="368" />
              <mxPoint x="416" y="368" />
            </Array>
          </mxGeometry>
        </mxCell>
        <mxCell id="kayHmzbgRTfpFbBfkl1g-48" value="NestJS Service &amp;amp;&amp;nbsp;http-proxy-middleware" style="text;html=1;strokeColor=none;fillColor=none;align=center;verticalAlign=middle;whiteSpace=wrap;rounded=0;fontColor=#000000;fontStyle=1" vertex="1" parent="1">
          <mxGeometry x="10" y="220" width="100" height="30" as="geometry" />
        </mxCell>
      </root>
    </mxGraphModel>
  </diagram>
</mxfile>
